<?xml version="1.0" encoding="UTF-8" standalone="no"?>
<!DOCTYPE svg PUBLIC "-//W3C//DTD SVG 1.1//EN"
 "http://www.w3.org/Graphics/SVG/1.1/DTD/svg11.dtd">
<!-- Generated by graphviz version 2.42.3 (0)
 -->
<!-- Title: ER Pages: 1 -->
<svg width="1395pt" height="555pt"
 viewBox="0.00 0.00 1395.25 555.00" xmlns="http://www.w3.org/2000/svg" xmlns:xlink="http://www.w3.org/1999/xlink">
<g id="graph0" class="graph" transform="scale(1 1) rotate(0) translate(4 551)">
<title>ER</title>
<polygon fill="white" stroke="transparent" points="-4,4 -4,-551 1391.25,-551 1391.25,4 -4,4"/>
<!-- DISCOUNT -->
<g id="node1" class="node">
<title>DISCOUNT</title>
<polygon fill="none" stroke="black" points="93,-283 8,-283 8,-247 93,-247 93,-283"/>
<text text-anchor="middle" x="50.5" y="-261.3" font-family="Times,serif" font-size="14.00">DISCOUNT</text>
</g>
<!-- Percentage -->
<g id="node32" class="node">
<title>Percentage</title>
<ellipse fill="none" stroke="black" cx="126.5" cy="-178" rx="35.82" ry="18"/>
<text text-anchor="middle" x="126.5" y="-175.5" font-family="Times,serif" font-size="10.00">Percentage</text>
</g>
<!-- DISCOUNT&#45;&#45;Percentage -->
<g id="edge24" class="edge">
<title>DISCOUNT&#45;&#45;Percentage</title>
<path fill="none" stroke="black" d="M65.88,-246.8C79.5,-231.57 99.21,-209.52 112.42,-194.74"/>
</g>
<!-- Buy_Limit -->
<g id="node33" class="node">
<title>Buy_Limit</title>
<ellipse fill="none" stroke="black" cx="36.5" cy="-178" rx="36.49" ry="18"/>
<text text-anchor="middle" x="36.5" y="-175.5" font-family="Times,serif" font-size="10.00">Buy_Limit</text>
</g>
<!-- DISCOUNT&#45;&#45;Buy_Limit -->
<g id="edge25" class="edge">
<title>DISCOUNT&#45;&#45;Buy_Limit</title>
<path fill="none" stroke="black" d="M47.66,-246.8C45.24,-232.05 41.75,-210.92 39.33,-196.18"/>
</g>
<!-- Applies_On -->
<g id="node39" class="node">
<title>Applies_On</title>
<polygon fill="none" stroke="black" points="203.5,-283 128.26,-265 203.5,-247 278.74,-265 203.5,-283"/>
<text text-anchor="middle" x="203.5" y="-261.3" font-family="Times,serif" font-size="14.00">Applies_On</text>
</g>
<!-- DISCOUNT&#45;&#45;Applies_On -->
<g id="edge31" class="edge">
<title>DISCOUNT&#45;&#45;Applies_On</title>
<path fill="none" stroke="black" d="M93.12,-264C103.99,-264 116.01,-264 128,-264"/>
<path fill="none" stroke="black" d="M93.12,-266C103.99,-266 116.01,-266 128,-266"/>
<text text-anchor="middle" x="110.56" y="-271.8" font-family="Times,serif" font-size="14.00">1</text>
</g>
<!-- BOOK -->
<g id="node2" class="node">
<title>BOOK</title>
<polygon fill="none" stroke="black" points="369,-283 314,-283 314,-247 369,-247 369,-283"/>
<text text-anchor="middle" x="341.5" y="-261.3" font-family="Times,serif" font-size="14.00">BOOK</text>
</g>
<!-- Year -->
<g id="node12" class="node">
<title>Year</title>
<ellipse fill="none" stroke="black" cx="521.5" cy="-178" rx="27" ry="18"/>
<text text-anchor="middle" x="521.5" y="-175.5" font-family="Times,serif" font-size="10.00">Year</text>
</g>
<!-- BOOK&#45;&#45;Year -->
<g id="edge4" class="edge">
<title>BOOK&#45;&#45;Year</title>
<path fill="none" stroke="black" d="M369.23,-250.91C405.22,-233.91 467.28,-204.6 499.95,-189.17"/>
</g>
<!-- Price -->
<g id="node13" class="node">
<title>Price</title>
<ellipse fill="none" stroke="black" cx="219.5" cy="-178" rx="27" ry="18"/>
<text text-anchor="middle" x="219.5" y="-175.5" font-family="Times,serif" font-size="10.00">Price</text>
</g>
<!-- BOOK&#45;&#45;Price -->
<g id="edge5" class="edge">
<title>BOOK&#45;&#45;Price</title>
<path fill="none" stroke="black" d="M316.81,-246.8C293.27,-230.4 258.4,-206.11 237.42,-191.49"/>
</g>
<!-- Category -->
<g id="node14" class="node">
<title>Category</title>
<ellipse fill="none" stroke="black" cx="296.5" cy="-178" rx="31.58" ry="18"/>
<text text-anchor="middle" x="296.5" y="-175.5" font-family="Times,serif" font-size="10.00">Category</text>
</g>
<!-- BOOK&#45;&#45;Category -->
<g id="edge6" class="edge">
<title>BOOK&#45;&#45;Category</title>
<path fill="none" stroke="black" d="M332.39,-246.8C324.48,-231.86 313.1,-210.36 305.28,-195.6"/>
</g>
<!-- Stores_At -->
<g id="node37" class="node">
<title>Stores_At</title>
<polygon fill="none" stroke="black" points="411.5,-196 346.48,-178 411.5,-160 476.52,-178 411.5,-196"/>
<text text-anchor="middle" x="411.5" y="-174.3" font-family="Times,serif" font-size="14.00">Stores_At</text>
</g>
<!-- BOOK&#45;&#45;Stores_At -->
<g id="edge38" class="edge">
<title>BOOK&#45;&#45;Stores_At</title>
<path fill="none" stroke="black" d="M354.89,-246.16C367.91,-230.35 386.99,-207.19 399.13,-192.45"/>
<path fill="none" stroke="black" d="M356.43,-247.43C369.46,-231.62 388.53,-208.46 400.67,-193.72"/>
<text text-anchor="middle" x="386.5" y="-217.8" font-family="Times,serif" font-size="14.00">N</text>
</g>
<!-- PUBLISHER -->
<g id="node3" class="node">
<title>PUBLISHER</title>
<polygon fill="none" stroke="black" points="503.5,-469.5 413.5,-469.5 413.5,-433.5 503.5,-433.5 503.5,-469.5"/>
<text text-anchor="middle" x="458.5" y="-447.8" font-family="Times,serif" font-size="14.00">PUBLISHER</text>
</g>
<!-- Publishes -->
<g id="node35" class="node">
<title>Publishes</title>
<polygon fill="none" stroke="black" points="458.5,-374 395.99,-356 458.5,-338 521,-356 458.5,-374"/>
<text text-anchor="middle" x="458.5" y="-352.3" font-family="Times,serif" font-size="14.00">Publishes</text>
</g>
<!-- PUBLISHER&#45;&#45;Publishes -->
<g id="edge36" class="edge">
<title>PUBLISHER&#45;&#45;Publishes</title>
<path fill="none" stroke="black" d="M457.5,-433.35C457.5,-416.48 457.5,-390.87 457.5,-374.04"/>
<path fill="none" stroke="black" d="M459.5,-433.35C459.5,-416.48 459.5,-390.87 459.5,-374.04"/>
<text text-anchor="middle" x="462" y="-399.8" font-family="Times,serif" font-size="14.00">1</text>
</g>
<!-- CUSTOMER -->
<g id="node4" class="node">
<title>CUSTOMER</title>
<polygon fill="none" stroke="black" points="944,-469.5 853,-469.5 853,-433.5 944,-433.5 944,-469.5"/>
<text text-anchor="middle" x="898.5" y="-447.8" font-family="Times,serif" font-size="14.00">CUSTOMER</text>
</g>
<!-- Purchases -->
<g id="node36" class="node">
<title>Purchases</title>
<polygon fill="none" stroke="black" points="749.5,-374 684.48,-356 749.5,-338 814.52,-356 749.5,-374"/>
<text text-anchor="middle" x="749.5" y="-352.3" font-family="Times,serif" font-size="14.00">Purchases</text>
</g>
<!-- CUSTOMER&#45;&#45;Purchases -->
<g id="edge33" class="edge">
<title>CUSTOMER&#45;&#45;Purchases</title>
<path fill="none" stroke="black" d="M871.17,-433.35C841.43,-414.69 794.65,-385.33 768.61,-368.99"/>
<text text-anchor="middle" x="836" y="-399.8" font-family="Times,serif" font-size="14.00">1</text>
</g>
<!-- Has -->
<g id="node38" class="node">
<title>Has</title>
<polygon fill="none" stroke="black" points="1023.5,-469.5 988.44,-451.5 1023.5,-433.5 1058.55,-451.5 1023.5,-469.5"/>
<polygon fill="none" stroke="black" points="1023.5,-474 979.68,-451.5 1023.5,-429 1067.32,-451.5 1023.5,-474"/>
<text text-anchor="middle" x="1023.5" y="-447.8" font-family="Times,serif" font-size="14.00">Has</text>
</g>
<!-- CUSTOMER&#45;&#45;Has -->
<g id="edge29" class="edge">
<title>CUSTOMER&#45;&#45;Has</title>
<path fill="none" stroke="black" d="M944.33,-451.5C955.9,-451.5 968.29,-451.5 979.75,-451.5"/>
<text text-anchor="middle" x="961.92" y="-458.3" font-family="Times,serif" font-size="14.00">1</text>
</g>
<!-- INVENTORY -->
<g id="node5" class="node">
<title>INVENTORY</title>
<polygon fill="none" stroke="black" points="459,-109 364,-109 364,-73 459,-73 459,-109"/>
<text text-anchor="middle" x="411.5" y="-87.3" font-family="Times,serif" font-size="14.00">INVENTORY</text>
</g>
<!-- Location -->
<g id="node23" class="node">
<title>Location</title>
<ellipse fill="none" stroke="black" cx="371.5" cy="-18" rx="31.4" ry="18"/>
<text text-anchor="middle" x="371.5" y="-15.5" font-family="Times,serif" font-size="10.00">Location</text>
</g>
<!-- INVENTORY&#45;&#45;Location -->
<g id="edge15" class="edge">
<title>INVENTORY&#45;&#45;Location</title>
<path fill="none" stroke="black" d="M401.81,-72.81C395.43,-61.49 387.12,-46.73 380.82,-35.54"/>
</g>
<!-- Quantity -->
<g id="node24" class="node">
<title>Quantity</title>
<ellipse fill="none" stroke="black" cx="451.5" cy="-18" rx="31.4" ry="18"/>
<text text-anchor="middle" x="451.5" y="-15.5" font-family="Times,serif" font-size="10.00">Quantity</text>
</g>
<!-- INVENTORY&#45;&#45;Quantity -->
<g id="edge16" class="edge">
<title>INVENTORY&#45;&#45;Quantity</title>
<path fill="none" stroke="black" d="M421.18,-72.81C427.56,-61.49 435.87,-46.73 442.18,-35.54"/>
</g>
<!-- SALE_RECORD -->
<g id="node6" class="node">
<title>SALE_RECORD</title>
<polygon fill="none" stroke="black" points="805.5,-283 693.5,-283 693.5,-247 805.5,-247 805.5,-283"/>
<text text-anchor="middle" x="749.5" y="-261.3" font-family="Times,serif" font-size="14.00">SALE_RECORD</text>
</g>
<!-- Transaction_Id -->
<g id="node25" class="node">
<title>Transaction_Id</title>
<ellipse fill="none" stroke="black" cx="658.5" cy="-178" rx="45.83" ry="18"/>
<text text-anchor="start" x="627.5" y="-176.5" font-family="Times,serif" text-decoration="underline" font-size="10.00">Transaction_Id</text>
</g>
<!-- SALE_RECORD&#45;&#45;Transaction_Id -->
<g id="edge17" class="edge">
<title>SALE_RECORD&#45;&#45;Transaction_Id</title>
<path fill="none" stroke="black" d="M731.08,-246.8C714.88,-231.66 691.47,-209.8 675.65,-195.03"/>
</g>
<!-- Date -->
<g id="node26" class="node">
<title>Date</title>
<ellipse fill="none" stroke="black" cx="749.5" cy="-178" rx="27" ry="18"/>
<text text-anchor="middle" x="749.5" y="-175.5" font-family="Times,serif" font-size="10.00">Date</text>
</g>
<!-- SALE_RECORD&#45;&#45;Date -->
<g id="edge18" class="edge">
<title>SALE_RECORD&#45;&#45;Date</title>
<path fill="none" stroke="black" d="M749.5,-246.8C749.5,-232.05 749.5,-210.92 749.5,-196.18"/>
</g>
<!-- Card_Type -->
<g id="node27" class="node">
<title>Card_Type</title>
<ellipse fill="none" stroke="black" cx="830.5" cy="-178" rx="36.49" ry="18"/>
<text text-anchor="middle" x="830.5" y="-175.5" font-family="Times,serif" font-size="10.00">Card_Type</text>
</g>
<!-- SALE_RECORD&#45;&#45;Card_Type -->
<g id="edge19" class="edge">
<title>SALE_RECORD&#45;&#45;Card_Type</title>
<path fill="none" stroke="black" d="M765.89,-246.8C780.4,-231.57 801.42,-209.52 815.5,-194.74"/>
</g>
<!-- ACCOUNT -->
<g id="node7" class="node">
<title>ACCOUNT</title>
<polygon fill="none" stroke="black" points="1188.5,-469.5 1106.5,-469.5 1106.5,-433.5 1188.5,-433.5 1188.5,-469.5"/>
<polygon fill="none" stroke="black" points="1192.5,-473.5 1102.5,-473.5 1102.5,-429.5 1192.5,-429.5 1192.5,-473.5"/>
<text text-anchor="middle" x="1147.5" y="-447.8" font-family="Times,serif" font-size="14.00">ACCOUNT</text>
</g>
<!-- Acct_No -->
<g id="node28" class="node">
<title>Acct_No</title>
<ellipse fill="none" stroke="black" cx="1099.5" cy="-356" rx="34.29" ry="18"/>
<text text-anchor="start" x="1078.5" y="-354.5" font-family="Times,serif" text-decoration="underline" font-size="10.00">A</text>
<text text-anchor="start" x="1086.5" y="-354.5" font-family="Times,serif" font-size="10.00">c</text>
<text text-anchor="start" x="1091.5" y="-354.5" font-family="Times,serif" text-decoration="underline" font-size="10.00">c</text>
<text text-anchor="start" x="1096.5" y="-354.5" font-family="Times,serif" font-size="10.00">t</text>
<text text-anchor="start" x="1100.5" y="-354.5" font-family="Times,serif" text-decoration="underline" font-size="10.00">_</text>
<text text-anchor="start" x="1106.5" y="-354.5" font-family="Times,serif" font-size="10.00">N</text>
<text text-anchor="start" x="1114.5" y="-354.5" font-family="Times,serif" text-decoration="underline" font-size="10.00">o</text>
</g>
<!-- ACCOUNT&#45;&#45;Acct_No -->
<g id="edge20" class="edge">
<title>ACCOUNT&#45;&#45;Acct_No</title>
<path fill="none" stroke="black" d="M1136.61,-429.28C1127.92,-412.37 1115.93,-389.01 1107.96,-373.48"/>
</g>
<!-- Reward_Point -->
<g id="node29" class="node">
<title>Reward_Point</title>
<ellipse fill="none" stroke="black" cx="1195.5" cy="-356" rx="44.3" ry="18"/>
<text text-anchor="middle" x="1195.5" y="-353.5" font-family="Times,serif" font-size="10.00">Reward_Point</text>
</g>
<!-- ACCOUNT&#45;&#45;Reward_Point -->
<g id="edge21" class="edge">
<title>ACCOUNT&#45;&#45;Reward_Point</title>
<path fill="none" stroke="black" d="M1158.39,-429.28C1167.02,-412.47 1178.91,-389.31 1186.88,-373.78"/>
</g>
<!-- Recommendation_List -->
<g id="node30" class="node">
<title>Recommendation_List</title>
<ellipse fill="none" stroke="black" cx="1322.5" cy="-356" rx="64.51" ry="18"/>
<text text-anchor="middle" x="1322.5" y="-353.5" font-family="Times,serif" font-size="10.00">Recommendation_List</text>
</g>
<!-- ACCOUNT&#45;&#45;Recommendation_List -->
<g id="edge22" class="edge">
<title>ACCOUNT&#45;&#45;Recommendation_List</title>
<path fill="none" stroke="black" d="M1187.21,-429.28C1219.68,-411.93 1264.82,-387.82 1293.85,-372.31"/>
</g>
<!-- Membership -->
<g id="node31" class="node">
<title>Membership</title>
<ellipse fill="none" stroke="black" cx="1007.5" cy="-356" rx="40.06" ry="18"/>
<text text-anchor="middle" x="1007.5" y="-353.5" font-family="Times,serif" font-size="10.00">Membership</text>
</g>
<!-- ACCOUNT&#45;&#45;Membership -->
<g id="edge23" class="edge">
<title>ACCOUNT&#45;&#45;Membership</title>
<path fill="none" stroke="black" d="M1115.73,-429.28C1089.27,-411.61 1052.29,-386.92 1029.13,-371.45"/>
</g>
<!-- GIFT -->
<g id="node8" class="node">
<title>GIFT</title>
<polygon fill="none" stroke="black" points="586.5,-469.5 532.5,-469.5 532.5,-433.5 586.5,-433.5 586.5,-469.5"/>
<polygon fill="none" stroke="black" points="590.5,-473.5 528.5,-473.5 528.5,-429.5 590.5,-429.5 590.5,-473.5"/>
<text text-anchor="middle" x="559.5" y="-447.8" font-family="Times,serif" font-size="14.00">GIFT</text>
</g>
<!-- Type -->
<g id="node34" class="node">
<title>Type</title>
<ellipse fill="none" stroke="black" cx="566.5" cy="-356" rx="27" ry="18"/>
<text text-anchor="middle" x="566.5" y="-353.5" font-family="Times,serif" font-size="10.00">Type</text>
</g>
<!-- GIFT&#45;&#45;Type -->
<g id="edge26" class="edge">
<title>GIFT&#45;&#45;Type</title>
<path fill="none" stroke="black" d="M561.09,-429.28C562.34,-412.58 564.06,-389.61 565.22,-374.08"/>
</g>
<!-- Rewards_To -->
<g id="node40" class="node">
<title>Rewards_To</title>
<polygon fill="none" stroke="black" points="721.5,-469.59 643.41,-451.5 721.5,-433.41 799.58,-451.5 721.5,-469.59"/>
<polygon fill="none" stroke="black" points="721.5,-473.71 625.61,-451.5 721.5,-429.29 817.39,-451.5 721.5,-473.71"/>
<text text-anchor="middle" x="721.5" y="-447.8" font-family="Times,serif" font-size="14.00">Rewards_To</text>
</g>
<!-- GIFT&#45;&#45;Rewards_To -->
<g id="edge27" class="edge">
<title>GIFT&#45;&#45;Rewards_To</title>
<path fill="none" stroke="black" d="M590.73,-450.5C600.94,-450.5 612.86,-450.5 625.29,-450.5"/>
<path fill="none" stroke="black" d="M590.73,-452.5C600.94,-452.5 612.86,-452.5 625.29,-452.5"/>
<text text-anchor="middle" x="608.02" y="-458.3" font-family="Times,serif" font-size="14.00">N</text>
</g>
<!-- Isbn -->
<g id="node9" class="node">
<title>Isbn</title>
<ellipse fill="none" stroke="black" cx="187.5" cy="-356" rx="27" ry="18"/>
<text text-anchor="start" x="178.5" y="-354.5" font-family="Times,serif" text-decoration="underline" font-size="10.00">Isbn</text>
</g>
<!-- Isbn&#45;&#45;BOOK -->
<g id="edge1" class="edge">
<title>Isbn&#45;&#45;BOOK</title>
<path fill="none" stroke="black" d="M207.29,-343.43C212.56,-340.36 218.24,-337.05 223.5,-334 254.38,-316.09 289.89,-295.65 313.82,-281.9"/>
</g>
<!-- Title -->
<g id="node10" class="node">
<title>Title</title>
<ellipse fill="none" stroke="black" cx="259.5" cy="-356" rx="27" ry="18"/>
<text text-anchor="middle" x="259.5" y="-353.5" font-family="Times,serif" font-size="10.00">Title</text>
</g>
<!-- Title&#45;&#45;BOOK -->
<g id="edge2" class="edge">
<title>Title&#45;&#45;BOOK</title>
<path fill="none" stroke="black" d="M273.04,-340.3C287.5,-324.6 310.41,-299.74 325.69,-283.16"/>
</g>
<!-- Author -->
<g id="node11" class="node">
<title>Author</title>
<ellipse fill="none" stroke="black" cx="341.5" cy="-356" rx="32.93" ry="18"/>
<ellipse fill="none" stroke="black" cx="341.5" cy="-356" rx="36.93" ry="22"/>
<text text-anchor="middle" x="341.5" y="-353.5" font-family="Times,serif" font-size="10.00">Author(s)</text>
</g>
<!-- Author&#45;&#45;BOOK -->
<g id="edge3" class="edge">
<title>Author&#45;&#45;BOOK</title>
<path fill="none" stroke="black" d="M341.5,-333.91C341.5,-318.38 341.5,-297.55 341.5,-283.07"/>
</g>
<!-- Name -->
<g id="node15" class="node">
<title>Name</title>
<ellipse fill="none" stroke="black" cx="386.5" cy="-529" rx="27" ry="18"/>
<text text-anchor="start" x="374" y="-527.5" font-family="Times,serif" text-decoration="underline" font-size="10.00">Name</text>
</g>
<!-- Name&#45;&#45;PUBLISHER -->
<g id="edge7" class="edge">
<title>Name&#45;&#45;PUBLISHER</title>
<path fill="none" stroke="black" d="M400.38,-513.44C412.31,-500.93 429.54,-482.87 442.14,-469.66"/>
</g>
<!-- Phone -->
<g id="node16" class="node">
<title>Phone</title>
<ellipse fill="none" stroke="black" cx="458.5" cy="-529" rx="27" ry="18"/>
<text text-anchor="middle" x="458.5" y="-526.5" font-family="Times,serif" font-size="10.00">Phone</text>
</g>
<!-- Phone&#45;&#45;PUBLISHER -->
<g id="edge8" class="edge">
<title>Phone&#45;&#45;PUBLISHER</title>
<path fill="none" stroke="black" d="M458.5,-510.87C458.5,-498.51 458.5,-481.9 458.5,-469.56"/>
</g>
<!-- Address -->
<g id="node17" class="node">
<title>Address</title>
<ellipse fill="none" stroke="black" cx="532.5" cy="-529" rx="29.37" ry="18"/>
<text text-anchor="middle" x="532.5" y="-526.5" font-family="Times,serif" font-size="10.00">Address</text>
</g>
<!-- Address&#45;&#45;PUBLISHER -->
<g id="edge9" class="edge">
<title>Address&#45;&#45;PUBLISHER</title>
<path fill="none" stroke="black" d="M517.88,-513.08C505.66,-500.62 488.23,-482.84 475.42,-469.76"/>
</g>
<!-- Id -->
<g id="node18" class="node">
<title>Id</title>
<ellipse fill="none" stroke="black" cx="754.5" cy="-529" rx="27" ry="18"/>
<text text-anchor="start" x="750" y="-527.5" font-family="Times,serif" text-decoration="underline" font-size="10.00">Id</text>
</g>
<!-- Id&#45;&#45;CUSTOMER -->
<g id="edge10" class="edge">
<title>Id&#45;&#45;CUSTOMER</title>
<path fill="none" stroke="black" d="M775.13,-517.18C798.85,-504.75 838.09,-484.17 865.94,-469.57"/>
</g>
<!-- Email -->
<g id="node19" class="node">
<title>Email</title>
<ellipse fill="none" stroke="black" cx="826.5" cy="-529" rx="27" ry="18"/>
<text text-anchor="start" x="814" y="-527.5" font-family="Times,serif" text-decoration="underline" font-size="10.00">Email</text>
</g>
<!-- Email&#45;&#45;CUSTOMER -->
<g id="edge11" class="edge">
<title>Email&#45;&#45;CUSTOMER</title>
<path fill="none" stroke="black" d="M840.38,-513.44C852.31,-500.93 869.54,-482.87 882.14,-469.66"/>
</g>
<!-- Name2 -->
<g id="node20" class="node">
<title>Name2</title>
<ellipse fill="none" stroke="black" cx="898.5" cy="-529" rx="27" ry="18"/>
<text text-anchor="middle" x="898.5" y="-526.5" font-family="Times,serif" font-size="10.00">Name</text>
</g>
<!-- Name2&#45;&#45;CUSTOMER -->
<g id="edge12" class="edge">
<title>Name2&#45;&#45;CUSTOMER</title>
<path fill="none" stroke="black" d="M898.5,-510.87C898.5,-498.51 898.5,-481.9 898.5,-469.56"/>
</g>
<!-- Address2 -->
<g id="node21" class="node">
<title>Address2</title>
<ellipse fill="none" stroke="black" cx="972.5" cy="-529" rx="29.37" ry="18"/>
<text text-anchor="middle" x="972.5" y="-526.5" font-family="Times,serif" font-size="10.00">Address</text>
</g>
<!-- Address2&#45;&#45;CUSTOMER -->
<g id="edge13" class="edge">
<title>Address2&#45;&#45;CUSTOMER</title>
<path fill="none" stroke="black" d="M957.88,-513.08C945.66,-500.62 928.23,-482.84 915.42,-469.76"/>
</g>
<!-- Phone2 -->
<g id="node22" class="node">
<title>Phone2</title>
<ellipse fill="none" stroke="black" cx="1046.5" cy="-529" rx="27" ry="18"/>
<text text-anchor="middle" x="1046.5" y="-526.5" font-family="Times,serif" font-size="10.00">Phone</text>
</g>
<!-- Phone2&#45;&#45;CUSTOMER -->
<g id="edge14" class="edge">
<title>Phone2&#45;&#45;CUSTOMER</title>
<path fill="none" stroke="black" d="M1025.61,-517.34C1001.22,-504.9 960.58,-484.17 931.83,-469.5"/>
</g>
<!-- Publishes&#45;&#45;BOOK -->
<g id="edge37" class="edge">
<title>Publishes&#45;&#45;BOOK</title>
<path fill="none" stroke="black" d="M441.62,-343.42C421.28,-327.95 386.35,-301.37 363.43,-283.94"/>
<path fill="none" stroke="black" d="M442.83,-341.83C422.49,-326.35 387.56,-299.78 364.64,-282.35"/>
<text text-anchor="middle" x="412.5" y="-304.8" font-family="Times,serif" font-size="14.00">N</text>
</g>
<!-- Purchases&#45;&#45;BOOK -->
<g id="edge34" class="edge">
<title>Purchases&#45;&#45;BOOK</title>
<path fill="none" stroke="black" d="M715.06,-347.49C635.72,-330.18 441.31,-287.77 369.1,-272.02"/>
<text text-anchor="middle" x="574.5" y="-304.8" font-family="Times,serif" font-size="14.00">N</text>
</g>
<!-- Purchases&#45;&#45;SALE_RECORD -->
<g id="edge35" class="edge">
<title>Purchases&#45;&#45;SALE_RECORD</title>
<path fill="none" stroke="black" d="M748.5,-337.84C748.5,-322.08 748.5,-298.85 748.5,-283.11"/>
<path fill="none" stroke="black" d="M750.5,-337.84C750.5,-322.08 750.5,-298.85 750.5,-283.11"/>
<text text-anchor="middle" x="753" y="-304.8" font-family="Times,serif" font-size="14.00">1</text>
</g>
<!-- Stores_At&#45;&#45;INVENTORY -->
<g id="edge39" class="edge">
<title>Stores_At&#45;&#45;INVENTORY</title>
<path fill="none" stroke="black" d="M411.5,-159.8C411.5,-145.05 411.5,-123.92 411.5,-109.18"/>
<text text-anchor="middle" x="418" y="-130.8" font-family="Times,serif" font-size="14.00">M</text>
</g>
<!-- Has&#45;&#45;ACCOUNT -->
<g id="edge30" class="edge">
<title>Has&#45;&#45;ACCOUNT</title>
<path fill="none" stroke="black" d="M1067.21,-450.5C1078.51,-450.5 1090.7,-450.5 1102.08,-450.5"/>
<path fill="none" stroke="black" d="M1067.21,-452.5C1078.51,-452.5 1090.7,-452.5 1102.08,-452.5"/>
<text text-anchor="middle" x="1084.83" y="-458.3" font-family="Times,serif" font-size="14.00">1</text>
</g>
<!-- Applies_On&#45;&#45;BOOK -->
<g id="edge32" class="edge">
<title>Applies_On&#45;&#45;BOOK</title>
<path fill="none" stroke="black" d="M278.96,-265C291.42,-265 303.59,-265 313.84,-265"/>
<text text-anchor="middle" x="296.43" y="-271.8" font-family="Times,serif" font-size="14.00">N</text>
</g>
<!-- Rewards_To&#45;&#45;CUSTOMER -->
<g id="edge28" class="edge">
<title>Rewards_To&#45;&#45;CUSTOMER</title>
<path fill="none" stroke="black" d="M817.51,-451.5C829.7,-451.5 841.7,-451.5 852.57,-451.5"/>
<text text-anchor="middle" x="835.22" y="-458.3" font-family="Times,serif" font-size="14.00">1</text>
</g>
</g>
</svg>
