<?xml version="1.0" encoding="UTF-8" standalone="no"?>
<!DOCTYPE svg PUBLIC "-//W3C//DTD SVG 1.1//EN"
 "http://www.w3.org/Graphics/SVG/1.1/DTD/svg11.dtd">
<!-- Generated by graphviz version 2.42.3 (0)
 -->
<!-- Title: ER Pages: 1 -->
<svg width="1115pt" height="672pt"
 viewBox="0.00 0.00 1114.91 672.21" xmlns="http://www.w3.org/2000/svg" xmlns:xlink="http://www.w3.org/1999/xlink">
<g id="graph0" class="graph" transform="scale(1 1) rotate(0) translate(4 668.21)">
<title>ER</title>
<polygon fill="white" stroke="transparent" points="-4,4 -4,-668.21 1110.91,-668.21 1110.91,4 -4,4"/>
<!-- DISCOUNT -->
<g id="node1" class="node">
<title>DISCOUNT</title>
<polygon fill="none" stroke="black" points="132.41,-287 47.41,-287 47.41,-251 132.41,-251 132.41,-287"/>
<text text-anchor="middle" x="89.91" y="-265.3" font-family="Times,serif" font-size="14.00">DISCOUNT</text>
</g>
<!-- Percentage -->
<g id="node32" class="node">
<title>Percentage</title>
<ellipse fill="none" stroke="black" cx="35.91" cy="-178" rx="35.82" ry="18"/>
<text text-anchor="middle" x="35.91" y="-175.5" font-family="Times,serif" font-size="10.00">Percentage</text>
</g>
<!-- DISCOUNT&#45;&#45;Percentage -->
<g id="edge23" class="edge">
<title>DISCOUNT&#45;&#45;Percentage</title>
<path fill="none" stroke="black" d="M79.5,-250.84C69.81,-234.88 55.48,-211.25 45.92,-195.51"/>
</g>
<!-- Buy_Limit -->
<g id="node33" class="node">
<title>Buy_Limit</title>
<ellipse fill="none" stroke="black" cx="125.91" cy="-178" rx="36.49" ry="18"/>
<text text-anchor="middle" x="125.91" y="-175.5" font-family="Times,serif" font-size="10.00">Buy_Limit</text>
</g>
<!-- DISCOUNT&#45;&#45;Buy_Limit -->
<g id="edge24" class="edge">
<title>DISCOUNT&#45;&#45;Buy_Limit</title>
<path fill="none" stroke="black" d="M96.85,-250.84C103.27,-234.98 112.74,-211.55 119.11,-195.81"/>
</g>
<!-- Applies_On -->
<g id="node38" class="node">
<title>Applies_On</title>
<polygon fill="none" stroke="black" points="242.91,-287 167.67,-269 242.91,-251 318.15,-269 242.91,-287"/>
<text text-anchor="middle" x="242.91" y="-265.3" font-family="Times,serif" font-size="14.00">Applies_On</text>
</g>
<!-- DISCOUNT&#45;&#45;Applies_On -->
<g id="edge30" class="edge">
<title>DISCOUNT&#45;&#45;Applies_On</title>
<path fill="none" stroke="black" d="M132.53,-268C143.4,-268 155.42,-268 167.41,-268"/>
<path fill="none" stroke="black" d="M132.53,-270C143.4,-270 155.42,-270 167.41,-270"/>
<text text-anchor="middle" x="149.97" y="-275.8" font-family="Times,serif" font-size="14.00">1</text>
</g>
<!-- BOOK -->
<g id="node2" class="node">
<title>BOOK</title>
<polygon fill="none" stroke="black" points="408.41,-287 353.41,-287 353.41,-251 408.41,-251 408.41,-287"/>
<text text-anchor="middle" x="380.91" y="-265.3" font-family="Times,serif" font-size="14.00">BOOK</text>
</g>
<!-- Year -->
<g id="node11" class="node">
<title>Year</title>
<ellipse fill="none" stroke="black" cx="460.91" cy="-178" rx="27" ry="18"/>
<text text-anchor="middle" x="460.91" y="-175.5" font-family="Times,serif" font-size="10.00">Year</text>
</g>
<!-- BOOK&#45;&#45;Year -->
<g id="edge3" class="edge">
<title>BOOK&#45;&#45;Year</title>
<path fill="none" stroke="black" d="M396.33,-250.84C411.23,-234.27 433.54,-209.45 447.65,-193.75"/>
</g>
<!-- Price -->
<g id="node12" class="node">
<title>Price</title>
<ellipse fill="none" stroke="black" cx="532.91" cy="-178" rx="27" ry="18"/>
<text text-anchor="middle" x="532.91" y="-175.5" font-family="Times,serif" font-size="10.00">Price</text>
</g>
<!-- BOOK&#45;&#45;Price -->
<g id="edge4" class="edge">
<title>BOOK&#45;&#45;Price</title>
<path fill="none" stroke="black" d="M408.43,-251.88C438.72,-234.15 486.63,-206.1 513.32,-190.47"/>
</g>
<!-- Category -->
<g id="node13" class="node">
<title>Category</title>
<ellipse fill="none" stroke="black" cx="235.91" cy="-178" rx="31.58" ry="18"/>
<text text-anchor="middle" x="235.91" y="-175.5" font-family="Times,serif" font-size="10.00">Category</text>
</g>
<!-- BOOK&#45;&#45;Category -->
<g id="edge5" class="edge">
<title>BOOK&#45;&#45;Category</title>
<path fill="none" stroke="black" d="M353.29,-251.05C325.19,-233.8 282.26,-207.45 256.84,-191.85"/>
</g>
<!-- Stores_At -->
<g id="node36" class="node">
<title>Stores_At</title>
<polygon fill="none" stroke="black" points="350.91,-196 285.89,-178 350.91,-160 415.93,-178 350.91,-196"/>
<text text-anchor="middle" x="350.91" y="-174.3" font-family="Times,serif" font-size="14.00">Stores_At</text>
</g>
<!-- BOOK&#45;&#45;Stores_At -->
<g id="edge37" class="edge">
<title>BOOK&#45;&#45;Stores_At</title>
<path fill="none" stroke="black" d="M374.18,-251.16C368.69,-234.89 360.53,-210.67 355.23,-194.94"/>
<path fill="none" stroke="black" d="M376.07,-250.52C370.59,-234.26 362.42,-210.03 357.12,-194.3"/>
<text text-anchor="middle" x="372.91" y="-217.8" font-family="Times,serif" font-size="14.00">N</text>
</g>
<!-- AUTHOR -->
<g id="node3" class="node">
<title>AUTHOR</title>
<polygon fill="none" stroke="black" points="345.41,-474 272.41,-474 272.41,-438 345.41,-438 345.41,-474"/>
<text text-anchor="middle" x="308.91" y="-452.3" font-family="Times,serif" font-size="14.00">AUTHOR</text>
</g>
<!-- Publishes -->
<g id="node35" class="node">
<title>Publishes</title>
<polygon fill="none" stroke="black" points="431.91,-382.5 369.4,-364.5 431.91,-346.5 494.41,-364.5 431.91,-382.5"/>
<text text-anchor="middle" x="431.91" y="-360.8" font-family="Times,serif" font-size="14.00">Publishes</text>
</g>
<!-- AUTHOR&#45;&#45;Publishes -->
<g id="edge34" class="edge">
<title>AUTHOR&#45;&#45;Publishes</title>
<path fill="none" stroke="black" d="M331.74,-437.15C355.86,-419.6 392.86,-392.68 414.31,-377.07"/>
<path fill="none" stroke="black" d="M332.92,-438.76C357.04,-421.22 394.03,-394.3 415.49,-378.68"/>
<text text-anchor="middle" x="381.41" y="-408.8" font-family="Times,serif" font-size="14.00">M</text>
</g>
<!-- PUBLISHER -->
<g id="node4" class="node">
<title>PUBLISHER</title>
<polygon fill="none" stroke="black" points="476.91,-474 386.91,-474 386.91,-438 476.91,-438 476.91,-474"/>
<text text-anchor="middle" x="431.91" y="-452.3" font-family="Times,serif" font-size="14.00">PUBLISHER</text>
</g>
<!-- PUBLISHER&#45;&#45;Publishes -->
<g id="edge35" class="edge">
<title>PUBLISHER&#45;&#45;Publishes</title>
<path fill="none" stroke="black" d="M430.91,-437.74C430.91,-421.89 430.91,-398.54 430.91,-382.7"/>
<path fill="none" stroke="black" d="M432.91,-437.74C432.91,-421.89 432.91,-398.54 432.91,-382.7"/>
<text text-anchor="middle" x="435.41" y="-408.8" font-family="Times,serif" font-size="14.00">1</text>
</g>
<!-- CUSTOMER -->
<g id="node5" class="node">
<title>CUSTOMER</title>
<polygon fill="none" stroke="black" points="908.41,-474 817.41,-474 817.41,-438 908.41,-438 908.41,-474"/>
<text text-anchor="middle" x="862.91" y="-452.3" font-family="Times,serif" font-size="14.00">CUSTOMER</text>
</g>
<!-- Purchases -->
<g id="node27" class="node">
<title>Purchases</title>
<polygon fill="none" stroke="black" points="648.91,-382.5 583.89,-364.5 648.91,-346.5 713.93,-364.5 648.91,-382.5"/>
<text text-anchor="middle" x="648.91" y="-360.8" font-family="Times,serif" font-size="14.00">Purchases</text>
</g>
<!-- CUSTOMER&#45;&#45;Purchases -->
<g id="edge32" class="edge">
<title>CUSTOMER&#45;&#45;Purchases</title>
<path fill="none" stroke="black" d="M822.15,-437.95C778.25,-419.6 709.83,-390.98 673.5,-375.79"/>
<text text-anchor="middle" x="781.41" y="-408.8" font-family="Times,serif" font-size="14.00">M</text>
</g>
<!-- Has -->
<g id="node37" class="node">
<title>Has</title>
<polygon fill="none" stroke="black" points="862.91,-382.5 827.85,-364.5 862.91,-346.5 897.96,-364.5 862.91,-382.5"/>
<polygon fill="none" stroke="black" points="862.91,-387 819.09,-364.5 862.91,-342 906.73,-364.5 862.91,-387"/>
<text text-anchor="middle" x="862.91" y="-360.8" font-family="Times,serif" font-size="14.00">Has</text>
</g>
<!-- CUSTOMER&#45;&#45;Has -->
<g id="edge28" class="edge">
<title>CUSTOMER&#45;&#45;Has</title>
<path fill="none" stroke="black" d="M862.91,-437.74C862.91,-423.32 862.91,-402.67 862.91,-387.14"/>
<text text-anchor="middle" x="866.41" y="-408.8" font-family="Times,serif" font-size="14.00">1</text>
</g>
<!-- INVENTORY -->
<g id="node6" class="node">
<title>INVENTORY</title>
<polygon fill="none" stroke="black" points="398.41,-109 303.41,-109 303.41,-73 398.41,-73 398.41,-109"/>
<text text-anchor="middle" x="350.91" y="-87.3" font-family="Times,serif" font-size="14.00">INVENTORY</text>
</g>
<!-- Location -->
<g id="node22" class="node">
<title>Location</title>
<ellipse fill="none" stroke="black" cx="310.91" cy="-18" rx="31.4" ry="18"/>
<text text-anchor="middle" x="310.91" y="-15.5" font-family="Times,serif" font-size="10.00">Location</text>
</g>
<!-- INVENTORY&#45;&#45;Location -->
<g id="edge14" class="edge">
<title>INVENTORY&#45;&#45;Location</title>
<path fill="none" stroke="black" d="M341.23,-72.81C334.84,-61.49 326.53,-46.73 320.23,-35.54"/>
</g>
<!-- Quantity -->
<g id="node23" class="node">
<title>Quantity</title>
<ellipse fill="none" stroke="black" cx="390.91" cy="-18" rx="31.4" ry="18"/>
<text text-anchor="middle" x="390.91" y="-15.5" font-family="Times,serif" font-size="10.00">Quantity</text>
</g>
<!-- INVENTORY&#45;&#45;Quantity -->
<g id="edge15" class="edge">
<title>INVENTORY&#45;&#45;Quantity</title>
<path fill="none" stroke="black" d="M360.59,-72.81C366.97,-61.49 375.28,-46.73 381.59,-35.54"/>
</g>
<!-- ACCOUNT -->
<g id="node7" class="node">
<title>ACCOUNT</title>
<polygon fill="none" stroke="black" points="903.91,-287 821.91,-287 821.91,-251 903.91,-251 903.91,-287"/>
<polygon fill="none" stroke="black" points="907.91,-291 817.91,-291 817.91,-247 907.91,-247 907.91,-291"/>
<text text-anchor="middle" x="862.91" y="-265.3" font-family="Times,serif" font-size="14.00">ACCOUNT</text>
</g>
<!-- Acct_No -->
<g id="node28" class="node">
<title>Acct_No</title>
<ellipse fill="none" stroke="black" cx="869.91" cy="-178" rx="34.29" ry="18"/>
<text text-anchor="start" x="848.91" y="-176.5" font-family="Times,serif" text-decoration="underline" font-size="10.00">A</text>
<text text-anchor="start" x="856.91" y="-176.5" font-family="Times,serif" font-size="10.00">c</text>
<text text-anchor="start" x="861.91" y="-176.5" font-family="Times,serif" text-decoration="underline" font-size="10.00">c</text>
<text text-anchor="start" x="866.91" y="-176.5" font-family="Times,serif" font-size="10.00">t</text>
<text text-anchor="start" x="870.91" y="-176.5" font-family="Times,serif" text-decoration="underline" font-size="10.00">_</text>
<text text-anchor="start" x="876.91" y="-176.5" font-family="Times,serif" font-size="10.00">N</text>
<text text-anchor="start" x="884.91" y="-176.5" font-family="Times,serif" text-decoration="underline" font-size="10.00">o</text>
</g>
<!-- ACCOUNT&#45;&#45;Acct_No -->
<g id="edge19" class="edge">
<title>ACCOUNT&#45;&#45;Acct_No</title>
<path fill="none" stroke="black" d="M864.57,-246.91C865.79,-231.38 867.43,-210.55 868.57,-196.07"/>
</g>
<!-- Reward_Point -->
<g id="node29" class="node">
<title>Reward_Point</title>
<ellipse fill="none" stroke="black" cx="965.91" cy="-178" rx="44.3" ry="18"/>
<text text-anchor="middle" x="965.91" y="-175.5" font-family="Times,serif" font-size="10.00">Reward_Point</text>
</g>
<!-- ACCOUNT&#45;&#45;Reward_Point -->
<g id="edge20" class="edge">
<title>ACCOUNT&#45;&#45;Reward_Point</title>
<path fill="none" stroke="black" d="M887.32,-246.91C905.88,-230.87 931,-209.16 947.8,-194.65"/>
</g>
<!-- Recommendation_List -->
<g id="node30" class="node">
<title>Recommendation_List</title>
<ellipse fill="none" stroke="black" cx="654.91" cy="-178" rx="64.51" ry="18"/>
<text text-anchor="middle" x="654.91" y="-175.5" font-family="Times,serif" font-size="10.00">Recommendation_List</text>
</g>
<!-- ACCOUNT&#45;&#45;Recommendation_List -->
<g id="edge21" class="edge">
<title>ACCOUNT&#45;&#45;Recommendation_List</title>
<path fill="none" stroke="black" d="M817.78,-248.69C778.94,-232.07 723.79,-208.47 688.68,-193.45"/>
</g>
<!-- Membership -->
<g id="node31" class="node">
<title>Membership</title>
<ellipse fill="none" stroke="black" cx="777.91" cy="-178" rx="40.06" ry="18"/>
<text text-anchor="middle" x="777.91" y="-175.5" font-family="Times,serif" font-size="10.00">Membership</text>
</g>
<!-- ACCOUNT&#45;&#45;Membership -->
<g id="edge22" class="edge">
<title>ACCOUNT&#45;&#45;Membership</title>
<path fill="none" stroke="black" d="M842.76,-246.91C827.55,-230.97 806.98,-209.44 793.12,-194.93"/>
</g>
<!-- GIFT -->
<g id="node8" class="node">
<title>GIFT</title>
<polygon fill="none" stroke="black" points="620.91,-660.21 566.91,-660.21 566.91,-624.21 620.91,-624.21 620.91,-660.21"/>
<polygon fill="none" stroke="black" points="624.91,-664.21 562.91,-664.21 562.91,-620.21 624.91,-620.21 624.91,-664.21"/>
<text text-anchor="middle" x="593.91" y="-638.51" font-family="Times,serif" font-size="14.00">GIFT</text>
</g>
<!-- Type -->
<g id="node34" class="node">
<title>Type</title>
<ellipse fill="none" stroke="black" cx="577.91" cy="-547.1" rx="27" ry="18"/>
<text text-anchor="middle" x="577.91" y="-544.6" font-family="Times,serif" font-size="10.00">Type</text>
</g>
<!-- GIFT&#45;&#45;Type -->
<g id="edge25" class="edge">
<title>GIFT&#45;&#45;Type</title>
<path fill="none" stroke="black" d="M590.28,-620.08C587.42,-603.45 583.49,-580.57 580.83,-565.11"/>
</g>
<!-- Rewards_To -->
<g id="node39" class="node">
<title>Rewards_To</title>
<polygon fill="none" stroke="black" points="718.91,-565.19 640.82,-547.1 718.91,-529.02 796.99,-547.1 718.91,-565.19"/>
<polygon fill="none" stroke="black" points="718.91,-569.31 623.02,-547.1 718.91,-524.89 814.8,-547.1 718.91,-569.31"/>
<text text-anchor="middle" x="718.91" y="-543.4" font-family="Times,serif" font-size="14.00">Rewards_To</text>
</g>
<!-- GIFT&#45;&#45;Rewards_To -->
<g id="edge26" class="edge">
<title>GIFT&#45;&#45;Rewards_To</title>
<path fill="none" stroke="black" d="M621.68,-619.28C644.29,-602.43 675.52,-579.18 696.28,-563.71"/>
<path fill="none" stroke="black" d="M622.87,-620.88C645.49,-604.04 676.71,-580.78 697.48,-565.32"/>
<text text-anchor="middle" x="667.91" y="-591.01" font-family="Times,serif" font-size="14.00">N</text>
</g>
<!-- Isbn -->
<g id="node9" class="node">
<title>Isbn</title>
<ellipse fill="none" stroke="black" cx="323.91" cy="-364.5" rx="27" ry="18"/>
<text text-anchor="start" x="314.91" y="-363" font-family="Times,serif" text-decoration="underline" font-size="10.00">Isbn</text>
</g>
<!-- Isbn&#45;&#45;BOOK -->
<g id="edge1" class="edge">
<title>Isbn&#45;&#45;BOOK</title>
<path fill="none" stroke="black" d="M333.58,-347.64C343.81,-330.86 359.89,-304.48 370.42,-287.21"/>
</g>
<!-- Title -->
<g id="node10" class="node">
<title>Title</title>
<ellipse fill="none" stroke="black" cx="251.91" cy="-364.5" rx="27" ry="18"/>
<text text-anchor="middle" x="251.91" y="-362" font-family="Times,serif" font-size="10.00">Title</text>
</g>
<!-- Title&#45;&#45;BOOK -->
<g id="edge2" class="edge">
<title>Title&#45;&#45;BOOK</title>
<path fill="none" stroke="black" d="M269.57,-350.7C292.35,-334.19 332.01,-305.44 357.34,-287.08"/>
</g>
<!-- Name3 -->
<g id="node14" class="node">
<title>Name3</title>
<ellipse fill="none" stroke="black" cx="285.91" cy="-547.1" rx="27" ry="18"/>
<text text-anchor="start" x="273.41" y="-545.6" font-family="Times,serif" text-decoration="underline" font-size="10.00">Name</text>
</g>
<!-- Name3&#45;&#45;AUTHOR -->
<g id="edge6" class="edge">
<title>Name3&#45;&#45;AUTHOR</title>
<path fill="none" stroke="black" d="M290.34,-528.92C294.42,-513.15 300.42,-489.89 304.49,-474.13"/>
</g>
<!-- Name -->
<g id="node15" class="node">
<title>Name</title>
<ellipse fill="none" stroke="black" cx="505.91" cy="-547.1" rx="27" ry="18"/>
<text text-anchor="start" x="493.41" y="-545.6" font-family="Times,serif" text-decoration="underline" font-size="10.00">Name</text>
</g>
<!-- Name&#45;&#45;PUBLISHER -->
<g id="edge7" class="edge">
<title>Name&#45;&#45;PUBLISHER</title>
<path fill="none" stroke="black" d="M493.36,-530.99C480.24,-515.2 459.71,-490.48 446.04,-474.02"/>
</g>
<!-- Phone -->
<g id="node16" class="node">
<title>Phone</title>
<ellipse fill="none" stroke="black" cx="357.91" cy="-547.1" rx="27" ry="18"/>
<text text-anchor="middle" x="357.91" y="-544.6" font-family="Times,serif" font-size="10.00">Phone</text>
</g>
<!-- Phone&#45;&#45;PUBLISHER -->
<g id="edge8" class="edge">
<title>Phone&#45;&#45;PUBLISHER</title>
<path fill="none" stroke="black" d="M370.46,-530.99C383.57,-515.2 404.1,-490.48 417.78,-474.02"/>
</g>
<!-- Address -->
<g id="node17" class="node">
<title>Address</title>
<ellipse fill="none" stroke="black" cx="431.91" cy="-547.1" rx="29.37" ry="18"/>
<text text-anchor="middle" x="431.91" y="-544.6" font-family="Times,serif" font-size="10.00">Address</text>
</g>
<!-- Address&#45;&#45;PUBLISHER -->
<g id="edge9" class="edge">
<title>Address&#45;&#45;PUBLISHER</title>
<path fill="none" stroke="black" d="M431.91,-528.92C431.91,-513.15 431.91,-489.89 431.91,-474.13"/>
</g>
<!-- Email -->
<g id="node18" class="node">
<title>Email</title>
<ellipse fill="none" stroke="black" cx="859.91" cy="-547.1" rx="27" ry="18"/>
<text text-anchor="start" x="847.41" y="-545.6" font-family="Times,serif" text-decoration="underline" font-size="10.00">Email</text>
</g>
<!-- Email&#45;&#45;CUSTOMER -->
<g id="edge10" class="edge">
<title>Email&#45;&#45;CUSTOMER</title>
<path fill="none" stroke="black" d="M860.49,-528.92C861.02,-513.15 861.8,-489.89 862.33,-474.13"/>
</g>
<!-- Name2 -->
<g id="node19" class="node">
<title>Name2</title>
<ellipse fill="none" stroke="black" cx="931.91" cy="-547.1" rx="27" ry="18"/>
<text text-anchor="middle" x="931.91" y="-544.6" font-family="Times,serif" font-size="10.00">Name</text>
</g>
<!-- Name2&#45;&#45;CUSTOMER -->
<g id="edge11" class="edge">
<title>Name2&#45;&#45;CUSTOMER</title>
<path fill="none" stroke="black" d="M919.89,-530.58C907.69,-514.83 888.84,-490.49 876.2,-474.17"/>
</g>
<!-- Address2 -->
<g id="node20" class="node">
<title>Address2</title>
<ellipse fill="none" stroke="black" cx="1005.91" cy="-547.1" rx="29.37" ry="18"/>
<text text-anchor="middle" x="1005.91" y="-544.6" font-family="Times,serif" font-size="10.00">Address</text>
</g>
<!-- Address2&#45;&#45;CUSTOMER -->
<g id="edge12" class="edge">
<title>Address2&#45;&#45;CUSTOMER</title>
<path fill="none" stroke="black" d="M986.02,-533.71C961.08,-518.17 918.2,-491.45 890.2,-474.01"/>
</g>
<!-- Phone2 -->
<g id="node21" class="node">
<title>Phone2</title>
<ellipse fill="none" stroke="black" cx="1079.91" cy="-547.1" rx="27" ry="18"/>
<text text-anchor="middle" x="1079.91" y="-544.6" font-family="Times,serif" font-size="10.00">Phone</text>
</g>
<!-- Phone2&#45;&#45;CUSTOMER -->
<g id="edge13" class="edge">
<title>Phone2&#45;&#45;CUSTOMER</title>
<path fill="none" stroke="black" d="M1060.81,-534.09C1055.44,-530.94 1049.53,-527.68 1043.91,-525 999.06,-503.62 945.57,-484.24 908.43,-471.68"/>
</g>
<!-- Transaction_Id -->
<g id="node24" class="node">
<title>Transaction_Id</title>
<ellipse fill="none" stroke="black" cx="557.91" cy="-269" rx="45.83" ry="18"/>
<text text-anchor="start" x="526.91" y="-267.5" font-family="Times,serif" text-decoration="underline" font-size="10.00">Transaction_Id</text>
</g>
<!-- Date -->
<g id="node25" class="node">
<title>Date</title>
<ellipse fill="none" stroke="black" cx="648.91" cy="-269" rx="27" ry="18"/>
<text text-anchor="middle" x="648.91" y="-266.5" font-family="Times,serif" font-size="10.00">Date</text>
</g>
<!-- Card_Type -->
<g id="node26" class="node">
<title>Card_Type</title>
<ellipse fill="none" stroke="black" cx="729.91" cy="-269" rx="36.49" ry="18"/>
<text text-anchor="middle" x="729.91" y="-266.5" font-family="Times,serif" font-size="10.00">Card_Type</text>
</g>
<!-- Purchases&#45;&#45;BOOK -->
<g id="edge33" class="edge">
<title>Purchases&#45;&#45;BOOK</title>
<path fill="none" stroke="black" d="M621.74,-354.02C570.5,-336.15 460.15,-297.65 408.55,-279.64"/>
<text text-anchor="middle" x="535.91" y="-312.8" font-family="Times,serif" font-size="14.00">N</text>
</g>
<!-- Purchases&#45;&#45;Transaction_Id -->
<g id="edge16" class="edge">
<title>Purchases&#45;&#45;Transaction_Id</title>
<path fill="none" stroke="black" d="M635.87,-350.1C619.46,-333.24 591.28,-304.29 573.67,-286.2"/>
</g>
<!-- Purchases&#45;&#45;Date -->
<g id="edge17" class="edge">
<title>Purchases&#45;&#45;Date</title>
<path fill="none" stroke="black" d="M648.91,-346.35C648.91,-329.48 648.91,-303.87 648.91,-287.04"/>
</g>
<!-- Purchases&#45;&#45;Card_Type -->
<g id="edge18" class="edge">
<title>Purchases&#45;&#45;Card_Type</title>
<path fill="none" stroke="black" d="M660.86,-349.7C675.65,-332.64 700.76,-303.64 716.28,-285.73"/>
</g>
<!-- Publishes&#45;&#45;BOOK -->
<g id="edge36" class="edge">
<title>Publishes&#45;&#45;BOOK</title>
<path fill="none" stroke="black" d="M422.84,-348.96C413.71,-332.23 399,-305.25 389.42,-287.69"/>
<path fill="none" stroke="black" d="M424.59,-348C415.47,-331.27 400.75,-304.29 391.17,-286.73"/>
<text text-anchor="middle" x="414.91" y="-312.8" font-family="Times,serif" font-size="14.00">N</text>
</g>
<!-- Stores_At&#45;&#45;INVENTORY -->
<g id="edge38" class="edge">
<title>Stores_At&#45;&#45;INVENTORY</title>
<path fill="none" stroke="black" d="M350.91,-159.8C350.91,-145.05 350.91,-123.92 350.91,-109.18"/>
<text text-anchor="middle" x="357.41" y="-130.8" font-family="Times,serif" font-size="14.00">M</text>
</g>
<!-- Has&#45;&#45;ACCOUNT -->
<g id="edge29" class="edge">
<title>Has&#45;&#45;ACCOUNT</title>
<path fill="none" stroke="black" d="M861.91,-341.81C861.91,-326.6 861.91,-306.36 861.91,-291.25"/>
<path fill="none" stroke="black" d="M863.91,-341.81C863.91,-326.6 863.91,-306.36 863.91,-291.25"/>
<text text-anchor="middle" x="866.41" y="-312.8" font-family="Times,serif" font-size="14.00">1</text>
</g>
<!-- Applies_On&#45;&#45;BOOK -->
<g id="edge31" class="edge">
<title>Applies_On&#45;&#45;BOOK</title>
<path fill="none" stroke="black" d="M318.37,-269C330.83,-269 343,-269 353.25,-269"/>
<text text-anchor="middle" x="335.84" y="-275.8" font-family="Times,serif" font-size="14.00">N</text>
</g>
<!-- Rewards_To&#45;&#45;CUSTOMER -->
<g id="edge27" class="edge">
<title>Rewards_To&#45;&#45;CUSTOMER</title>
<path fill="none" stroke="black" d="M743.99,-530.58C769.45,-514.83 808.78,-490.49 835.17,-474.17"/>
<text text-anchor="middle" x="806.41" y="-495.8" font-family="Times,serif" font-size="14.00">1</text>
</g>
</g>
</svg>
